<?xml version="1.0" encoding="UTF-8"?>
<!DOCTYPE svg PUBLIC "-//W3C//DTD SVG 1.1//EN" "http://www.w3.org/Graphics/SVG/1.1/DTD/svg11.dtd">
<!-- Creator: CorelDRAW -->
<svg xmlns="http://www.w3.org/2000/svg" xml:space="preserve" width="114.745mm" height="41.7867mm" version="1.1" style="shape-rendering:geometricPrecision; text-rendering:geometricPrecision; image-rendering:optimizeQuality; fill-rule:evenodd; clip-rule:evenodd"
viewBox="0 0 11473.44 4178.28"
 xmlns:xlink="http://www.w3.org/1999/xlink"
 xmlns:xodm="http://www.corel.com/coreldraw/odm/2003">
 <defs>
  <style type="text/css">
   <![CDATA[
    .fil1 {fill:#FF0066}
    .fil0 {fill:#FF0066;fill-rule:nonzero}
   ]]>
  </style>
 </defs>
 <g id="Camada_x0020_1">
  <metadata id="CorelCorpID_0Corel-Layer"/>
  <g id="_1587031228496">
   <path class="fil0" d="M1485.83 3183.71c-21.73,-61.72 -43.17,-123.15 -64.31,-184.3 -0.2,-0.68 -0.35,-1.22 -0.47,-1.8 -1.41,-6.88 2.46,-13.76 8.64,-15.36 0.48,-0.14 0.97,-0.2 1.47,-0.29 6.76,-0.72 13.62,0.27 20.55,3.02 43.98,17.33 85.54,9.1 124.74,-24.62 5.52,-4.69 11.06,-4.69 16.58,0 45.1,38.47 94.77,45.98 149.06,22.49 13.27,-5.68 23.76,-15.65 35.38,-24.48 4.48,-3.39 8.8,-3.14 12.92,0.75 40.96,37.96 90.36,46.99 148.19,27.1 0.49,-0.14 1.01,-0.25 1.55,-0.25 3.04,0 5.52,2.78 5.52,6.23 0,0.72 -0.11,1.42 -0.33,2.11l-124.97 368.11c-2.75,8.04 -9.66,13.37 -17.35,13.37 -4.57,0 -8.99,-1.88 -12.38,-5.29l-101.55 -102.43c-0.1,-0.09 -0.29,-0.27 -0.48,-0.42 -4.17,-3.66 -10.25,-2.79 -13.56,1.97 -0.12,0.18 -0.27,0.39 -0.39,0.64 -4.61,7.9 -10.77,13.56 -18.51,16.97 -3.47,1.49 -6.36,3.87 -8.74,7.07 -20.04,28 -44.78,54.1 -74.24,78.31 -0.26,0.21 -0.55,0.43 -0.86,0.66 -6.68,4.67 -15.51,2.36 -19.71,-5.23 -0.18,-0.33 -0.37,-0.66 -0.51,-1.01 -13.36,-28.86 -25.08,-59.12 -35.17,-90.88 -9.43,-29.73 -19.79,-60.53 -31.06,-92.43z"/>
   <path class="fil0" d="M1768.94 3506.42c-25.27,58.89 -49.87,117.13 -73.8,174.62 -0.39,0.99 -0.99,2.07 -1.74,3.04 -4.34,5.85 -12.11,6.56 -17.34,1.63 -0.87,-0.8 -1.64,-1.75 -2.26,-2.77 -3.82,-6.41 -7.11,-12.81 -9.84,-19.2 -23.57,-55.07 -46.95,-111.29 -70.16,-168.61 -2.23,-5.56 -3.39,-11.56 -3.39,-17.63 0,-11.81 4.36,-23.06 12.01,-31.08l74.03 -77.42c3.91,-4.09 7.85,-4.15 11.82,-0.25 25.21,23.86 51.22,50.55 78.02,80.15 14.47,15.9 10.5,39.39 2.65,57.51z"/>
   <path class="fil0" d="M1986.41 2413.7c-0.19,116.95 0.48,242.02 2.01,375.1 0.7,56.14 -14.89,105.39 -66.75,124.22 -54.12,19.69 -113.83,-5.25 -130.66,-70.74 -3.58,-14.08 -7.55,-14.2 -11.95,-0.37 -19.19,60.61 -59.16,85.32 -119.99,74.17 -34.88,-6.39 -58.15,-28.96 -69.81,-67.66 -1.76,-5.81 -3.86,-11.37 -6.37,-16.74 -3.18,-6.74 -5.54,-6.41 -7.05,1.01 -5.62,28.03 -16.95,49.31 -34.01,63.79 -48.69,41.48 -125.77,26.36 -153.42,-34.52 -9.55,-20.99 -14.3,-48.18 -14.22,-81.58 0.18,-71.42 0.33,-141.96 0.47,-211.63l611.74 -155.05zm-611.45 24.64c0.17,-114.01 0.25,-225.54 0.29,-334.7l614.55 -267.64 -1.92 319.34 -612.92 282.99zm0.29 -599.72c-0.08,-157.56 -0.31,-309.81 -0.66,-456.74l339.89 -188.76 232.55 0c0,0 0,0 0,0 22.5,0 40.73,20.51 40.73,45.78 0,0.04 0,0.1 0,0.12l4.43 201.02 -1.32 221.58 -615.61 177zm246.02 380.28l123.85 0 0 -119.54c0,-38.31 -27.87,-69.62 -61.91,-69.62l-0.02 0c-34.05,0 -61.91,31.32 -61.91,69.62l0 119.54zm0 -632.08l123.85 0 0 -119.52c0,-38.29 -27.87,-69.64 -61.91,-69.64l-0.02 0c-34.05,0 -61.91,31.36 -61.91,69.64l0 119.52z"/>
   <path class="fil1" d="M1183.68 956.37l999.03 0c13.31,0 24.23,12.26 24.23,27.25l0 0c0,14.99 -10.92,27.25 -24.23,27.25l-4.96 0c0.23,3.95 0.31,8.25 0.27,12.96 -0.15,14.56 -1.55,32.65 -5.36,45.78 -3.8,13.15 -10.01,21.4 -21.71,31.53 -11.68,10.13 -28.86,22.2 -54.22,37.38 -25.37,15.23 -58.87,33.61 -82.54,45.98 -23.68,12.36 -37.49,18.67 -44.25,22.02 -6.76,3.31 -6.47,3.64 -85.44,4.88 -78.99,1.24 -237.22,3.37 -331.04,2.83 -93.83,-0.54 -123.23,-3.74 -163.68,-19.6 -40.44,-15.86 -91.91,-44.35 -123.77,-64.33 -31.86,-19.99 -44.13,-31.45 -51.49,-41.33 -7.34,-9.88 -9.8,-18.17 -13.06,-34.94 -2.21,-11.33 -4.8,-26.63 -7.51,-43.15l-10.27 0c-13.32,0 -24.23,-12.26 -24.23,-27.25l0 0c0,-14.99 10.91,-27.25 24.23,-27.25z"/>
   <path class="fil1" d="M1270.42 876.93c271.31,0.04 542.61,0.14 813.9,0.18 -15.18,-23.75 -30.35,-47.51 -39.12,-60.38 -8.79,-12.88 -11.16,-14.89 -10.71,-26.75 0.43,-11.89 3.72,-33.6 1.34,-62.56 -2.39,-28.92 -10.42,-65.03 -16.23,-86.97 -5.78,-21.91 -9.36,-29.58 -12.92,-37.29 2.38,-1.35 4.76,-2.67 5.21,-13.86 0.48,-11.16 -0.97,-32.17 -6.16,-45.34 -5.17,-13.21 -14.06,-18.58 -24.5,-20.11 -10.42,-1.55 -22.41,0.78 -34.38,3.06 -25.99,-25.39 -52,-50.78 -77.13,-70.19 -25.14,-19.45 -49.43,-32.89 -70.64,-41.74 -21.21,-8.87 -39.34,-13.11 -57.46,-17.35 -15.8,-126.66 -31.59,-253.33 -41.37,-319.83 -9.76,-66.5 -13.53,-72.81 -16.98,-75.99 -3.43,-3.16 -6.55,-3.16 -11.58,8.1 -5,11.25 -11.88,33.79 -19.56,73.29 -7.67,39.51 -16.14,95.98 -22.01,147.96 -5.88,51.93 -9.16,99.33 -12.45,146.78 7.07,0.39 14.12,0.79 20.01,2.17 5.87,1.39 10.59,3.77 14.48,6.74 3.88,3 6.94,6.56 6.22,8.42 -0.7,1.84 -5.17,1.98 -24.17,5.5 -19,3.55 -52.54,10.46 -80.64,18.73 -28.12,8.25 -50.84,17.84 -69.9,30.39 -19.08,12.57 -34.5,28.12 -49.93,43.65 14.56,4.34 29.13,8.62 53.39,10.77 24.25,2.17 58.19,2.17 80.35,4.17 22.16,2.03 32.52,6.04 39.32,10.92 6.79,4.86 9.99,10.52 13.22,16.23 -85.05,-3.35 -170.1,-6.66 -255.16,-9.99 -5.02,0.5 -10.04,1.02 -14.51,3.97 -4.49,2.92 -8.39,8.25 -10.11,22.02 -1.72,13.77 -1.22,36 -1.3,49.19 -0.09,13.23 -0.75,17.47 -3.83,24.23 -3.1,6.78 -8.62,16.13 -11.39,28.9 -2.75,12.82 -2.75,29.07 -3.58,54.53 -0.82,25.48 -2.46,60.22 -10.89,89.83 -8.42,29.62 -23.63,54.14 -38.85,78.64zm294.42 -140.61l0 -86.8c0,-23.24 -16.91,-42.26 -37.58,-42.26l-15.9 0c-20.68,0 -37.59,19.02 -37.59,42.26l0 85.36c-10.03,15.42 -43,31.92 -43,31.92l6.88 18.48 84.9 0 84.91 0 6.88 -18.48c0,0 -38,-15.47 -49.52,-30.48zm305.68 0l0 -86.8c0,-23.24 -16.92,-42.26 -37.59,-42.26l-15.9 0c-20.68,0 -37.59,19.02 -37.59,42.26l0 85.36c-10.03,15.42 -43,31.92 -43,31.92l6.86 18.48 84.93 0 84.9 0 6.88 -18.48c0,0 -38,-15.47 -49.51,-30.48z"/>
   <path class="fil1" d="M1930.49 691.2c417.62,-66.69 835.24,-133.43 1252.85,-200.11 0,154.78 0,309.55 0,464.34 -417.61,-88.09 -835.23,-176.13 -1252.85,-264.23z"/>
   <path class="fil1" d="M1435.89 691.2c-417.61,-66.69 -835.23,-133.43 -1252.85,-200.11 0,154.78 0,309.55 0,464.34 417.62,-88.09 835.24,-176.13 1252.85,-264.23z"/>
   <path class="fil0" d="M2068.82 3552.19c118.93,-71.79 242.89,-130.16 368.79,-180.57 143.95,-57.63 294.78,-109.45 452.46,-155.39 2.35,-0.68 4.28,0.05 5.79,2.15l220.68 299.68c0.35,0.48 0.54,1.07 0.54,1.7 0,1.32 -0.91,2.5 -2.09,2.64 -251.39,31.68 -500.26,68.96 -746.65,111.84 -58.25,10.18 -121.29,23.24 -189.09,39.31 -35.81,8.43 -69.54,18.67 -101.24,30.68 -65.65,24.87 -133.76,53.28 -194.72,89.41 -51.31,30.39 -97.86,76.49 -142.81,119.53 -1.82,1.72 -4.43,1.72 -6.22,0.06l-10.98 -10.46c-1.84,-1.71 -1.95,-3.53 -0.31,-5.52 70.39,-86.51 138.2,-163.97 203.4,-232.3 40.17,-42.1 87.65,-79.63 142.46,-112.76z"/>
   <path class="fil0" d="M1585.66 3895.76c-166.99,-77.81 -342.24,-136.92 -518.52,-160.16 -71.75,-9.47 -155.61,-15.63 -251.57,-18.5 -190.36,-5.65 -385.99,-3.85 -586.9,5.42 -0.18,0 -0.37,-0.02 -0.53,-0.05 -1.43,-0.26 -2.4,-1.77 -2.16,-3.39 0.05,-0.16 0.09,-0.37 0.15,-0.57l79.05 -217.22c0.97,-2.66 3.27,-4.46 5.85,-4.5 126.75,-2.88 252.28,-0.87 376.6,5.97 203.77,11.16 398.35,43.81 587.82,120.86 147.45,59.92 283.22,146.97 392.77,271.53 1.61,1.84 1.9,3.85 0.83,6.1l-12.45 26.67c-0.91,1.97 -3.1,2.82 -4.96,1.84 -22.08,-12.5 -44.08,-23.83 -65.99,-34.01z"/>
   <path class="fil0" d="M3083.35 3565.41c14.31,26.27 27.6,55.15 39.78,83.55 0.1,0.25 0.16,0.5 0.16,0.75 0,0.95 -0.66,1.67 -1.48,1.67 -0.03,0 -0.05,0 -0.07,0 -190.52,-4.79 -381.04,-10.29 -571.59,-16.56 -6.35,-0.16 -13.11,-0.66 -20.33,-1.49 -1.57,-0.14 -1.63,-0.6 -0.2,-1.28 0.18,-0.08 0.33,-0.18 0.47,-0.31 0.31,-0.29 0.67,-0.45 1.08,-0.52 13.23,-0.76 26.88,-2.04 40.94,-3.88 170.15,-21.86 339.28,-43.19 507.41,-64.02 1.66,-0.21 2.94,0.49 3.83,2.09z"/>
   <path class="fil0" d="M1825.62 3924.9c-16.33,8.32 -30.97,17.19 -43.94,26.61 -2.48,1.84 -4.85,1.68 -7.13,-0.45l-24.85 -23.18c-2.48,-2.27 -2.42,-4.53 0.17,-6.76 168.31,-144.4 368.06,-219.53 577.01,-240.64 93.77,-9.49 190.93,-12.88 291.51,-10.19 187.48,4.94 359.69,11.91 516.62,20.84 2.35,0.17 4.38,1.94 5.06,4.55 18.3,69.58 30.54,142.11 44.08,214.94 0.27,1.51 -0.25,2.11 -1.59,1.78 -231.33,-53.41 -468.13,-84.37 -703.71,-97.7 -88.6,-5.09 -163.83,-6.6 -245.85,-2.11 -140.06,7.67 -280.55,47.78 -407.38,112.31z"/>
   <path class="fil0" d="M1145.76 3771.39c1.49,0.21 2.91,0.75 4.3,1.7 2.83,1.9 2.58,2.79 -0.72,2.73 -154.25,-4.84 -310.82,-4.08 -469.72,2.39 -35.07,1.39 -70.08,3.89 -105.04,7.53 -111.22,11.6 -219.8,27.35 -325.77,47.26 -0.06,0 -0.14,0 -0.23,0 -0.97,0 -1.75,-0.89 -1.75,-1.98 0,-0.35 0.08,-0.68 0.24,-0.99l40.4 -75.71c0.79,-1.38 2.07,-2.23 3.48,-2.33 111.55,-8.46 231.39,-14.39 359.55,-17.84 33.63,-0.89 67.16,-0.75 100.53,0.45 123.77,4.49 255.34,16.75 394.73,36.8z"/>
   <path class="fil0" d="M1350.32 3844.32c100.28,22.15 200.47,52.54 291.24,95.7 5.11,2.4 5.87,5.99 2.34,10.75 -21.51,28.78 -43.53,55.87 -66.09,81.28 -1.24,1.35 -2.71,1.97 -4.45,1.74 -90.07,-11.43 -175.01,-18.3 -254.82,-20.55 -169.47,-4.76 -348.45,1.32 -536.92,18.3 -230.55,20.73 -460.97,48.89 -691.27,84.53 -0.07,0.02 -0.11,0.02 -0.17,0.02 -0.81,0 -1.45,-0.71 -1.45,-1.64 0,-0.28 0.07,-0.62 0.23,-0.88l132.68 -236.24c1.14,-1.98 2.96,-3.33 4.99,-3.7 158.81,-29.07 322.54,-50.78 491.23,-65.03 76.26,-6.49 152.71,-9.76 229.35,-9.86 130.67,-0.11 265.05,15.09 403.1,45.58z"/>
   <path class="fil0" d="M2553.87 3865.47c212.21,20.51 425.91,51.22 641.07,92.16 2.15,0.38 3.81,1.6 4.97,3.62 6.9,11.66 14.01,22.64 21.35,32.88 28.06,39.13 56.56,76.13 85.5,110.99 2.38,2.85 1.85,4.18 -1.61,3.93 -266.44,-17.41 -532.68,-48.9 -806.82,-79.72 -116.13,-13.02 -232.64,-18.29 -349.55,-15.87 -87.51,1.84 -171.56,9.49 -252.13,22.97 -10.65,1.73 -19.68,-5.52 -28.31,-11.4 -23.4,-15.96 -45.48,-32.77 -66.23,-50.38 -0.6,-0.5 -0.95,-1.26 -0.95,-2.11 0,-1.01 0.54,-1.92 1.34,-2.38 104.01,-55.29 206.26,-90.79 306.77,-106.42 53.03,-8.25 115.65,-12.2 187.79,-11.83 82.84,0.48 168.44,4.98 256.81,13.56z"/>
   <path class="fil0" d="M1830.99 4053.56c-33.74,20.22 -71.62,41.24 -113.72,63.07 -25.39,13.17 -48.71,20.51 -69.95,22.01 -44.19,3.17 -76.74,-27.37 -100.56,-66.21 -0.2,-0.37 -0.33,-0.8 -0.33,-1.28 0,-1.24 0.87,-2.25 1.99,-2.32 42.38,-0.93 72.18,-9.65 96.52,-50.94 15.9,-27 30.66,-55.85 44.29,-86.51 1.4,-3.25 4.32,-5.26 7.5,-5.26 1.99,0 3.89,0.77 5.4,2.22 44.39,42.07 86.18,83.91 135.28,119.18 0.54,0.39 0.85,1.03 0.85,1.76 0,0.76 -0.37,1.48 -0.97,1.86 -2.17,1.38 -4.07,1.09 -6.29,2.42z"/>
   <path class="fil0" d="M1502.89 4045.06c14.58,34.61 30.29,68.98 51.73,98.24 0.14,0.16 0.27,0.39 0.35,0.66 0.39,1.22 -0.14,2.54 -1.2,2.95 -0.23,0.13 -0.47,0.15 -0.72,0.13 -285.7,-6.12 -579.85,-11.72 -849.5,-5.63 -170.59,3.89 -404.06,14.79 -700.34,32.73 -0.06,0 -0.14,0.02 -0.21,0.02 -1.65,0 -2.99,-1.51 -2.99,-3.37 0,-0.08 0,-0.12 0,-0.2 0.1,-4.18 0.86,-8.21 2.27,-12.16 0.58,-1.63 1.67,-2.54 3.25,-2.73 270.46,-27.29 544.26,-50.82 821.36,-70.57 33.18,-2.36 67.57,-4.59 103.24,-6.62 189.53,-10.83 378.93,-22.97 568.18,-36.47 1.97,-0.14 3.78,1.07 4.59,3.02z"/>
   <path class="fil0" d="M1720.72 4152.29c57.72,-25.62 113.07,-58.87 164.56,-97.43 1.73,-1.3 3.64,-1.82 5.75,-1.66 156.99,15.88 282.92,26.59 377.77,32.05 363.03,20.92 728.54,41.56 1096.59,61.79 0.56,0.04 0.99,0.54 0.99,1.16 0,0.06 0,0.1 0,0.12l-1.92 28.37c-0.04,0.89 -0.7,1.59 -1.49,1.59 -0.02,0 -0.04,0 -0.04,0 -373.73,-13.32 -663.69,-21.59 -869.89,-24.83 -256.45,-4.05 -513.49,-2.4 -771.19,5.06 -10.81,0.33 -11.18,-1.71 -1.14,-6.22z"/>
   <path class="fil0" d="M3554.31 766.57l0 40.63c149.49,0 197.03,196.85 197.03,390.55l0 1340.45c0,212.46 -50.96,387.43 -197.03,387.43l0 40.63 1087.14 0 0 -40.63c-71.34,0 -309.15,3.13 -309.15,-365.56l0 -681.17 210.62 0c0,0 441.66,-9.36 492.62,343.72l44.16 0 0 -734.27 -44.16 0c-50.97,356.2 -492.62,346.82 -492.62,346.82l-210.62 0 0 -1027.97 118.9 0c0,0 941.05,-12.51 998.82,578.04l44.16 0 0 -618.66 -1939.86 0z"/>
   <path class="fil0" d="M6248.33 2213.23c0,0 0,449.93 0,453.08 -33.97,74.97 -95.12,137.48 -183.43,137.48 -176.67,0 -176.67,-206.24 -176.67,-206.24 0,-153.09 54.37,-321.82 360.11,-384.31zm757.63 537.42c-20.39,53.14 -98.55,53.14 -98.55,53.14 -163.04,3.12 -163.04,-218.73 -163.04,-218.73l0 -465.56c0,-368.71 -183.47,-624.9 -628.51,-624.9 0,0 -173.25,-9.39 -326.16,65.61 -156.27,74.98 -207.22,146.84 -244.6,193.7 -47.58,53.14 -54.35,137.5 -17,209.36 54.37,96.85 186.86,134.36 292.17,84.36 105.33,-53.13 146.1,-171.85 91.73,-268.7 -30.58,-50.01 -71.34,-81.24 -125.7,-93.75 -71.34,-18.73 -23.79,-68.74 30.58,-93.73 234.42,-109.36 431.45,56.24 431.45,381.19l0 196.84c-597.93,134.36 -879.89,181.22 -879.89,506.18 0,293.7 343.13,318.7 407.67,318.7 241.22,0 428.06,-115.61 475.61,-265.59 33.99,265.59 373.73,265.59 373.73,265.59 214.03,0 380.51,-106.24 417.87,-224.97l-37.36 -18.75zm1545.77 -821.75c101.92,-106.22 91.75,-274.95 -27.16,-368.69 -81.56,-65.61 -210.64,-84.37 -302.39,-46.87 -91.72,37.48 -210.61,81.22 -421.25,378.06l0 -396.81 -679.47 128.11 0 40.6c139.28,56.25 176.65,100 176.65,209.36l0 728.02c0,159.36 -3.39,290.58 -135.89,328.07l0 37.5 778 0 0 -37.5c-122.31,-31.24 -139.3,-156.24 -139.3,-328.07l0 -637.41c132.49,-190.6 254.8,-215.6 254.8,-178.1 0,62.49 33.99,124.97 95.11,171.86 118.92,96.85 295.59,81.22 400.89,-28.14zm1331.77 315.59c0,565.54 -33.99,709.25 -248.02,709.25 -214.03,0 -248.02,-143.72 -248.02,-709.25 0,-565.56 33.99,-709.27 248.02,-709.27 214.03,0 248.02,143.72 248.02,709.27zm594.52 0c0,-412.45 -278.57,-749.89 -842.54,-749.89 -560.57,0 -842.53,337.44 -842.53,749.89 0,409.31 281.96,749.88 842.53,749.88 563.97,0 842.54,-340.57 842.54,-749.88zm995.43 684.27c-122.3,-31.24 -139.3,-156.24 -139.3,-328.07l0 -1965.35 -676.07 124.99 0 37.48c139.29,46.89 176.64,93.75 176.64,203.11l0 1599.77c0,162.47 -6.78,293.7 -135.88,328.07l0 37.5 774.6 0 0 -37.5z"/>
   <path class="fil0" d="M3911.65 3959.97l-254.99 0 120.79 -260.49 134.2 260.49zm403.82 197.14c-28.05,-2.01 -63.44,2 -106.13,-78.45 0,0 -15.86,-30.17 -319.63,-617.55l-13.42 0 -229.39 485.79c-106.13,208.2 -154.95,208.2 -189.09,210.21l0 12.07 325.74 0 0 -12.07c-169.57,4.03 -142.73,-160.92 -130.55,-184.05l264.77 0 37.81 71.4c0,0 68.3,112.65 -28.05,112.65l0 12.07 387.94 0 0 -12.07zm663.72 -61.36c91.49,-109.63 36.57,-228.29 -124.46,-315.8l-187.87 -102.6c-158.61,-85.48 -115.92,-212.21 15.83,-212.21 195.24,0 261.11,140.81 285.5,203.18l15.85 0 0 -168.98c0,0 -92.69,-47.29 -301.35,-47.29 -196.41,0 -259.84,76.45 -259.84,76.45 -102.48,108.62 -48.81,220.27 124.43,309.79l187.88 97.55c147.63,89.52 108.57,229.31 -21.94,229.31 -203.75,0 -291.59,-171.98 -314.79,-236.36l-15.86 0 0 193.11c0,0 93.94,56.33 330.65,56.33 203.71,0 265.97,-82.49 265.97,-82.49zm756.41 0c91.49,-109.63 36.57,-228.29 -124.46,-315.8l-187.87 -102.6c-158.63,-85.48 -115.92,-212.21 15.83,-212.21 195.24,0 261.11,140.81 285.5,203.18l15.85 0 0 -168.98c0,0 -92.71,-47.29 -301.35,-47.29 -196.41,0 -259.84,76.45 -259.84,76.45 -102.48,108.62 -48.81,220.27 124.43,309.79l187.88 97.55c147.63,89.52 108.57,229.31 -21.94,229.31 -203.75,0 -291.59,-171.98 -314.79,-236.36l-15.86 0 0 193.11c0,0 93.94,56.33 330.65,56.33 203.71,0 265.97,-82.49 265.97,-82.49zm824.71 -134.77c-25.64,201.15 -362.35,195.13 -362.35,195.13l-43.93 0 0 -337.94 71.98 0c0,0 157.39,-1.01 170.8,111.63l15.86 0 0 -236.35 -15.86 0c-13.42,113.64 -170.8,111.63 -170.8,111.63l-71.98 0 0 -330.89 43.93 0c0,0 331.85,0.99 346.49,186.05l15.86 0 0 -199.14 -684.43 0 0 13.09c53.66,0 70.74,63.36 70.74,125.71l0 431.49c0,68.39 -19.5,124.72 -70.74,124.72l0 13.07 700.29 0 0 -208.2 -15.87 0zm735.67 134.77c91.5,-109.63 36.57,-228.29 -124.48,-315.8l-187.85 -102.6c-158.63,-85.48 -115.91,-212.21 15.84,-212.21 195.21,0 261.1,140.81 285.49,203.18l15.86 0 0 -168.98c0,0 -92.72,-47.29 -301.35,-47.29 -196.42,0 -259.85,76.45 -259.85,76.45 -102.47,108.62 -48.83,220.27 124.44,309.79l187.87 97.55c147.63,89.52 108.58,229.31 -21.96,229.31 -203.73,0 -291.57,-171.98 -314.76,-236.36l-15.86 0 0 193.11c0,0 93.94,56.33 330.62,56.33 203.74,0 265.99,-82.49 265.99,-82.49zm756.39 0c91.52,-109.63 36.59,-228.29 -124.46,-315.8l-187.85 -102.6c-158.63,-85.48 -115.91,-212.21 15.84,-212.21 195.21,0 261.1,140.81 285.49,203.18l15.86 0 0 -168.98c0,0 -92.72,-47.29 -301.35,-47.29 -196.42,0 -259.85,76.45 -259.85,76.45 -102.47,108.62 -48.83,220.27 124.44,309.79l187.87 97.55c147.63,89.52 108.58,229.31 -21.96,229.31 -203.73,0 -291.57,-171.98 -314.76,-236.36l-15.86 0 0 193.11c0,0 93.94,56.33 330.62,56.33 203.74,0 265.97,-82.49 265.97,-82.49zm769.83 -275.56c0,276.58 -35.38,344.97 -179.34,344.97 -145.19,0 -181.78,-68.38 -181.78,-344.97 0,-275.59 36.6,-355.05 181.78,-355.05 143.97,0 179.34,79.45 179.34,355.05zm253.76 0c0,-199.15 -164.7,-368.14 -433.1,-368.14 -268.39,0 -433.1,168.98 -433.1,368.14 0,200.15 164.7,358.06 433.1,358.06 268.39,0 433.1,-157.91 433.1,-358.06zm594.16 -166.96c0,179.03 -56.12,178.02 -195.23,178.02l-37.82 0 0 -357.05 37.82 0c130.55,0 195.23,-4.03 195.23,179.02zm365.99 502.89c-31.72,-2.02 -107.36,-32.19 -131.76,-108.63 -58.56,-181.03 -143.97,-215.23 -253.76,-212.21 131.77,-7.05 262.3,-45.28 262.3,-182.05 0,-167.96 -195.19,-192.11 -438,-192.11l-324.51 0 0 13.09c53.69,0 75.62,27.14 75.62,89.51l0 487.8c0,85.48 -23.17,104.6 -75.62,104.6l0 13.07 359.91 0 0 -13.07c-51.24,0 -73.21,-21.13 -73.21,-104.6l0 -207.19 57.35 0c0,0 129.33,-3.02 157.39,99.56 56.12,202.17 54.88,225.3 207.41,225.3l176.88 0 0 -13.07zm56.12 -695.01l0 13.09c53.68,0 91.5,14.08 91.5,89.51l0 487.8c0,82.46 -39.04,104.6 -91.5,104.6l0 13.07 394.07 0 0 -13.07c-51.24,0 -91.5,-22.14 -91.5,-104.6l0 -487.8c0,-75.43 39.05,-89.51 91.5,-89.51l0 -13.09 -394.07 0zm912.55 498.86l-254.99 0 120.8 -260.49 134.19 260.49zm403.82 197.14c-28.05,-2.01 -63.42,2 -106.13,-78.45 0,0 -15.86,-30.17 -319.63,-617.55l-13.42 0 -229.37 485.79c-106.15,208.2 -154.97,208.2 -189.11,210.21l0 12.07 325.74 0 0 -12.07c-169.57,4.03 -142.73,-160.92 -130.55,-184.05l264.77 0 37.81 71.4c0,0 68.32,112.65 -28.05,112.65l0 12.07 387.94 0 0 -12.07z"/>
  </g>
 </g>
</svg>
